<svg width="380" height="67" viewBox="0 0 380 67" fill="none" xmlns="http://www.w3.org/2000/svg">
<path d="M379.497 4.79876C379.624 3.98024 379.064 3.21317 378.246 3.08547L364.907 1.00443C364.089 0.876722 363.322 1.43674 363.194 2.25527C363.066 3.07379 363.626 3.84086 364.445 3.96857L376.301 5.81838L374.451 17.6749C374.324 18.4935 374.884 19.2605 375.702 19.3882C376.521 19.5159 377.288 18.9559 377.416 18.1374L379.497 4.79876ZM0.493343 45.9118C53.0188 64.7607 126.133 70.3813 196.772 63.5014C267.39 56.6235 335.829 37.2237 378.899 5.77902L377.13 3.35605C334.686 34.3438 266.867 53.6603 196.481 60.5155C126.117 67.3687 53.4812 61.7393 1.50663 43.0881L0.493343 45.9118Z" fill="#FB8E0B"/>
</svg>
